<svg width="643" height="393" viewBox="0 0 643 393" fill="none" xmlns="http://www.w3.org/2000/svg">
<g clip-path="url(#clip0_454_1700)">
<path d="M403.554 57.9521C357.636 37.4663 321.5 0 321.5 0C321.5 0 285.364 37.4663 239.446 57.9521C217.018 67.958 194.643 73.0674 175.182 73.9336V222.168C175.182 328.329 321.5 392.926 321.5 392.926C321.5 392.926 467.818 328.329 467.818 222.168V73.9336C448.357 73.0674 425.982 67.958 403.554 57.9521Z" fill="#008AED"/>
<path d="M321.526 358.34C302.18 348.114 283.847 336.079 266.772 322.395C239.131 299.96 206.182 264.361 206.182 222.167V101.147C221.971 97.8528 237.358 92.8626 252.076 86.2632C280.251 73.6929 304.871 55.6909 321.5 41.8511C338.129 55.6909 362.749 73.6919 390.923 86.2632C405.641 92.8624 421.028 97.8526 436.818 101.147V222.167C436.818 264.734 403.327 300.605 375.231 323.201C358.459 336.556 340.48 348.32 321.526 358.34V358.34Z" fill="url(#paint0_radial_454_1700)"/>
<path d="M435.182 91L441.818 222.168C441.818 264.734 408.327 300.605 380.231 323.201C359.671 339.736 328.815 351.319 316.182 358" stroke="#01406E" stroke-width="21" stroke-miterlimit="10"/>
<path d="M320.709 355.65C302.106 345.488 284.425 333.721 267.869 320.483C253.387 308.751 237.817 293.808 225.929 276.58C214.035 259.343 206.182 240.347 206.182 220.281V97.8856C221.143 94.2617 235.745 89.2745 249.804 82.9837C277.892 70.4767 302.655 53.2563 320.681 38.891C338.708 53.2559 363.47 70.4754 391.557 82.9832C405.616 89.2741 420.22 94.2615 435.182 97.8855V220.281C435.182 240.527 427.199 259.685 415.103 277.067C403.014 294.439 387.18 309.5 372.454 321.322C356.219 334.223 338.907 345.707 320.709 355.65Z" stroke="#00C1FF" stroke-width="20"/>
<path d="M349.433 182.385H293.567C292.098 182.39 290.691 182.975 289.652 184.013C288.614 185.052 288.028 186.46 288.024 187.928V243.794C288.028 245.263 288.614 246.67 289.652 247.709C290.691 248.747 292.098 249.333 293.567 249.337H349.433C350.902 249.333 352.309 248.747 353.347 247.709C354.386 246.67 354.972 245.263 354.976 243.794V187.928C354.972 186.46 354.386 185.052 353.347 184.014C352.309 182.975 350.902 182.39 349.433 182.385ZM325.355 221.055C325.361 221.135 325.38 221.211 325.38 221.292V238.141C325.377 239.169 324.967 240.154 324.24 240.881C323.513 241.608 322.528 242.018 321.5 242.021C320.472 242.018 319.487 241.608 318.76 240.881C318.033 240.154 317.623 239.169 317.62 238.141V221.292C317.62 221.211 317.639 221.135 317.645 221.055C316.427 220.372 315.413 219.376 314.707 218.171C314.002 216.966 313.63 215.595 313.63 214.198C313.63 212.111 314.459 210.109 315.935 208.633C317.411 207.157 319.413 206.328 321.5 206.328C323.587 206.328 325.589 207.157 327.065 208.633C328.541 210.109 329.37 212.111 329.37 214.198C329.37 215.595 328.998 216.966 328.292 218.171C327.587 219.376 326.573 220.372 325.355 221.055V221.055Z" fill="white"/>
<path d="M300.314 175.291V164.775C300.314 159.156 302.546 153.767 306.519 149.794C310.492 145.821 315.881 143.589 321.5 143.589C324.282 143.589 327.037 144.137 329.607 145.202C332.177 146.266 334.513 147.827 336.48 149.794C338.447 151.761 340.008 154.097 341.073 156.667C342.137 159.237 342.685 161.992 342.685 164.775V175.291" stroke="white" stroke-width="7" stroke-miterlimit="10"/>
</g>
<defs>
<radialGradient id="paint0_radial_454_1700" cx="0" cy="0" r="1" gradientUnits="userSpaceOnUse" gradientTransform="translate(321.5 200.096) scale(138.455 138.455)">
<stop offset="0.00013" stop-color="#008AED"/>
<stop offset="1" stop-color="#00365F"/>
</radialGradient>
<clipPath id="clip0_454_1700">
<rect width="292.636" height="392.926" fill="white" transform="translate(175.182)"/>
</clipPath>
</defs>
</svg>
